<?xml version="1.0" standalone="no"?>
<svg version="1.0" xmlns="http://www.w3.org/2000/svg" width="338pt" height="338pt" viewBox="0 0 338 338">
<g transform="translate(0,338) scale(0.1,-0.1)" fill="#ffffff">
<path d="M358 3369 c-127 -30 -255 -138 -316 -266 l-37 -78 0 -1335 0 -1335 37 -78 c50 -105 130 -185 235 -235 l78 -37 1335 0 1335 0 78 37 c105 50 185 130 235 235 l37 78 0 1335 0 1335 -37 78 c-50 105 -130 185 -235 235 l-78 37 -1315 2 c-742 0 -1331 -3 -1352 -8z m2204 -594 c104 -45 170 -111 213 -215 16 -39 19 -80 23 -305 l3 -260 -108 -54 c-120 -61 -312 -187 -430 -282 -99 -80 -283 -266 -348 -352 -27 -36 -52 -66 -55 -66 -4 -1 -12 27 -19 62 -27 129 -103 373 -167 534 -126 320 -298 631 -496 900 -21 29 -38 55 -38 58 0 3 309 5 688 3 662 -3 689 -4 734 -23z m-1948 -259 c443 -556 723 -1209 791 -1841 4 -33 9 -68 12 -78 5 -18 -7 -19 -274 -15 -247 4 -283 6 -325 24 -103 43 -169 109 -214 214 -18 43 -19 82 -22 805 -3 698 0 905 15 905 3 0 11 -6 17 -14z m2177 -1622 c-25 -162 -140 -278 -300 -305 -71 -11 -361 -12 -361 -1 0 13 106 179 175 274 77 106 295 326 405 408 l85 63 3 -189 c1 -104 -2 -216 -7 -250z"/></g>
</svg>